<?xml version="1.0" encoding="UTF-8"?>
<svg width="24" height="24" viewBox="0 0 24 24" fill="none" xmlns="http://www.w3.org/2000/svg">
  <path d="M12 15C13.6569 15 15 13.6569 15 12C15 10.3431 13.6569 9 12 9C10.3431 9 9 10.3431 9 12C9 13.6569 10.3431 15 12 15Z" stroke="white" stroke-width="1.5"/>
  <path d="M19.4 15C19.7 14.1 19.8 13.1 19.8 12C19.8 10.9 19.7 9.9 19.4 9L21.5 7.3C21.7 7.1 21.8 6.9 21.7 6.7L19.7 3.3C19.6 3.1 19.4 3 19.2 3L16.6 3.6C15.9 3 15.2 2.6 14.4 2.2L13.8 0H10.2L9.6 2.2C8.8 2.6 8.1 3 7.4 3.6L4.8 3C4.6 3 4.4 3.1 4.3 3.3L2.3 6.7C2.2 6.9 2.3 7.1 2.5 7.3L4.6 9C4.3 9.9 4.2 10.9 4.2 12C4.2 13.1 4.3 14.1 4.6 15L2.5 16.7C2.3 16.9 2.2 17.1 2.3 17.3L4.3 20.7C4.4 20.9 4.6 21 4.8 21L7.4 20.4C8.1 21 8.8 21.4 9.6 21.8L10.2 24H13.8L14.4 21.8C15.2 21.4 15.9 21 16.6 20.4L19.2 21C19.4 21 19.6 20.9 19.7 20.7L21.7 17.3C21.8 17.1 21.7 16.9 21.5 16.7L19.4 15Z" stroke="white" stroke-width="1.5"/>
</svg> 